<svg width="24" height="24" viewBox="0 0 24 24" fill="none" xmlns="http://www.w3.org/2000/svg">
<path d="M22.2365 7.21922C21.6519 6.74879 20.8274 6.33056 19.7858 5.97609C17.6995 5.26603 14.9345 4.875 12 4.875C9.06551 4.875 6.30047 5.26603 4.21421 5.97605C3.17266 6.33051 2.34812 6.74879 1.76347 7.21918C1.09102 7.76032 0.75 8.35736 0.75 8.99369V14.7911C0.75 15.5108 1.20461 16.5628 3.37028 17.4872C4.87827 18.1308 6.97428 18.5937 9.28431 18.7943C9.53823 18.9765 9.84927 19.0839 10.1849 19.0839H13.815C14.1507 19.0839 14.4618 18.9765 14.7157 18.7943C15.5956 18.718 16.4462 18.6042 17.2458 18.4558C17.607 18.3888 17.9247 18.2128 18.1675 17.9656C21.4935 17.3437 23.25 16.2474 23.25 14.7911V8.99369C23.25 8.35736 22.909 7.76032 22.2365 7.21922ZM8.66873 17.85C6.72691 17.632 4.9905 17.2232 3.71534 16.6789C2.38938 16.1129 1.62891 15.4249 1.62891 14.7911V10.6596C3.0087 11.863 5.82951 12.6347 8.76092 12.9462C8.68094 13.1329 8.63665 13.3383 8.63665 13.5539V17.5356C8.63665 17.6433 8.64772 17.7484 8.66873 17.85ZM14.4844 17.5356C14.4844 17.5357 14.4844 17.5357 14.4844 17.5358C14.4844 17.5417 14.4844 17.5476 14.4842 17.5534C14.4842 17.5538 14.4842 17.5542 14.4842 17.5546C14.4814 17.6529 14.4569 17.7485 14.4137 17.8349C14.4126 17.8371 14.4115 17.8393 14.4104 17.8415C14.4096 17.843 14.4088 17.8445 14.408 17.846C14.4077 17.8466 14.4074 17.8472 14.4071 17.8478C14.2947 18.06 14.0715 18.205 13.8151 18.205H10.1849V18.205C9.81583 18.205 9.51555 17.9047 9.51555 17.5357V13.5539C9.51555 13.1849 9.81583 12.8846 10.1849 12.8846H13.815C14.0575 12.8846 14.2703 13.0142 14.3878 13.2077C14.3892 13.21 14.3906 13.2124 14.3919 13.2147L14.3923 13.2154C14.4478 13.3099 14.4801 13.418 14.484 13.5306C14.484 13.5312 14.4841 13.5318 14.4841 13.5324C14.4841 13.5353 14.4842 13.5381 14.4843 13.541C14.4843 13.5418 14.4843 13.5426 14.4843 13.5434C14.4844 13.5469 14.4844 13.5504 14.4844 13.5539V14.1203H11.7803C11.5376 14.1203 11.3408 14.317 11.3408 14.5597V16.8166C11.3408 17.0593 11.5376 17.2561 11.7803 17.2561H14.4844V17.5356ZM14.4844 16.3772H12.2197V14.9992H14.4844V16.3772ZM17.7862 16.7497C17.7862 17.1623 17.4915 17.5163 17.0855 17.5916C16.5247 17.6957 15.9373 17.7822 15.3313 17.85C15.3522 17.7488 15.3633 17.6439 15.3634 17.5366C15.3634 17.5363 15.3634 17.536 15.3634 17.5356V13.5539C15.3634 13.3385 15.3191 13.1332 15.2393 12.9467C15.7705 12.8908 16.2896 12.8211 16.7902 12.7383C17.0388 12.6972 17.292 12.767 17.4842 12.93C17.6761 13.0928 17.7862 13.3306 17.7862 13.5824V16.7497ZM17.6375 11.9984C17.3303 11.8612 16.9866 11.8151 16.6468 11.8712V11.8712C15.9438 11.9875 15.2023 12.0771 14.4408 12.1378C14.2494 12.0529 14.0377 12.0057 13.8151 12.0057H10.185C9.96234 12.0057 9.75057 12.0529 9.55906 12.1379C7.29007 11.9568 5.23906 11.5205 3.77282 10.9058C3.70528 10.8775 3.63914 10.8489 3.57445 10.82C3.95713 10.6451 4.48052 10.4443 5.17591 10.2493C7.06701 9.71905 9.4905 9.42708 12 9.42708C14.5095 9.42708 16.933 9.7191 18.824 10.2493C19.5588 10.4553 20.1363 10.7004 20.5576 10.9142C19.8215 11.3097 18.8531 11.6867 17.6375 11.9984ZM22.3711 14.7911C22.3711 15.351 21.7695 15.7977 21.2647 16.074C20.6277 16.4227 19.7339 16.7282 18.6512 16.9696C18.6604 16.8975 18.6651 16.8241 18.6651 16.7498V13.5825C18.6651 13.266 18.5793 12.9605 18.4213 12.6953C19.7358 12.3136 20.8258 11.8324 21.6354 11.2908C21.6593 11.2777 21.6822 11.2622 21.7036 11.2445C21.9549 11.072 22.178 10.8934 22.3711 10.7102V14.7911ZM21.4066 10.377C20.8962 10.074 20.1248 9.70117 19.0614 9.40295C17.0952 8.8517 14.5875 8.54813 12 8.54813C9.41254 8.54813 6.9048 8.8517 4.9386 9.403C3.81848 9.71703 3.08868 10.0518 2.63354 10.314C1.9926 9.89184 1.63805 9.43973 1.62908 9.01039C1.62908 9.0096 1.62904 9.00885 1.62904 9.00806C1.62895 9.00327 1.62891 8.99848 1.62891 8.99369C1.62891 7.46132 5.88817 5.75391 12 5.75391C18.1118 5.75391 22.3711 7.46132 22.3711 8.99369C22.3711 9.3928 22.0588 9.88292 21.4066 10.377Z" fill="#A6A6A6"/>
</svg>
