<svg width="24" height="24" viewBox="0 0 24 24" fill="none" xmlns="http://www.w3.org/2000/svg">
<path fill-rule="evenodd" clip-rule="evenodd" d="M3.46025 6.59499C3.48063 4.30848 5.32323 2.4375 7.56818 2.4375C9.42693 2.4375 10.9792 3.608 11.5395 5.16371C11.6917 5.14633 11.8454 5.1375 12 5.1375C12.1546 5.1375 12.3083 5.14633 12.4605 5.16371C13.0208 3.608 14.5731 2.4375 16.4318 2.4375C18.6768 2.4375 20.5194 4.30848 20.5397 6.59499L20.5398 6.60501L20.5397 6.60501C20.5268 8.05641 19.7797 9.34037 18.6614 10.0847C20.7975 10.9784 22.3125 13.1145 22.3125 15.6V17.4C22.3125 17.7107 22.0607 17.9625 21.75 17.9625H17.8713C17.8775 18.0746 17.8807 18.1871 17.8807 18.3V21C17.8807 21.3107 17.6288 21.5625 17.3182 21.5625H6.68182C6.37116 21.5625 6.11932 21.3107 6.11932 21V18.3C6.11932 18.1871 6.12247 18.0746 6.12874 17.9625H2.25C1.93934 17.9625 1.6875 17.7107 1.6875 17.4V15.6C1.6875 13.1145 3.20245 10.9784 5.33857 10.0847C4.22034 9.34037 3.47319 8.05641 3.46025 6.60501L3.46016 6.59499L3.46025 6.59499ZM7.56818 9.6375C5.96436 9.6375 4.60297 8.28915 4.58525 6.6C4.60297 4.91085 5.96436 3.5625 7.56818 3.5625C8.91229 3.5625 10.0144 4.38467 10.4439 5.4477C9.94241 5.65569 9.48192 5.96401 9.09221 6.35972C8.32279 7.14097 7.89205 8.19878 7.89205 9.3C7.89205 9.41304 7.89658 9.52563 7.90556 9.6375H7.56818ZM8.15395 10.7625H7.56818C4.97097 10.7625 2.8125 12.9215 2.8125 15.6V16.8375H6.29895C6.55638 15.806 7.0839 14.8533 7.83871 14.0869C8.39268 13.5244 9.04633 13.0854 9.7579 12.7879C9.51947 12.6305 9.29615 12.4474 9.09221 12.2403C8.67497 11.8166 8.35732 11.3116 8.15395 10.7625ZM12 13.4625C10.7415 13.4625 9.5328 13.97 8.64025 14.8763C7.74742 15.7829 7.24432 17.0143 7.24432 18.3V20.4375H16.7557V18.3C16.7557 18.0275 16.7331 17.7574 16.689 17.4924C16.5249 16.5067 16.0633 15.5906 15.3598 14.8763C14.4672 13.97 13.2585 13.4625 12 13.4625ZM17.7011 16.8375H21.1875V15.6C21.1875 12.9215 19.029 10.7625 16.4318 10.7625H15.8461C15.6427 11.3116 15.325 11.8166 14.9078 12.2403C14.7038 12.4474 14.4805 12.6305 14.2421 12.7879C14.9537 13.0854 15.6073 13.5244 16.1613 14.0869C16.9162 14.8534 17.4437 15.8061 17.7011 16.8375ZM16.0944 9.6375H16.4318C18.0356 9.6375 19.397 8.28915 19.4147 6.6C19.397 4.91085 18.0356 3.5625 16.4318 3.5625C15.0877 3.5625 13.9856 4.38467 13.5561 5.4477C14.0576 5.65569 14.5181 5.96401 14.9078 6.35972C15.6772 7.14097 16.108 8.19878 16.108 9.3C16.108 9.41304 16.1034 9.52563 16.0944 9.6375ZM12 6.2625C11.2117 6.2625 10.4539 6.5804 9.89376 7.14912C9.33337 7.71812 9.01705 8.49166 9.01705 9.3C9.01705 10.1083 9.33337 10.8819 9.89376 11.4509C10.4539 12.0196 11.2117 12.3375 12 12.3375C12.7883 12.3375 13.5461 12.0196 14.1062 11.4509C14.6666 10.8819 14.983 10.1083 14.983 9.3C14.983 8.49166 14.6666 7.71812 14.1062 7.14912C13.5461 6.5804 12.7883 6.2625 12 6.2625Z" fill="#A6A6A6"/>
</svg>
