<svg width="24" height="24" viewBox="0 0 24 24" fill="none" xmlns="http://www.w3.org/2000/svg">
<path fill-rule="evenodd" clip-rule="evenodd" d="M9.75 4.125H4.5C4.29289 4.125 4.125 4.29289 4.125 4.5V9.75C4.125 9.95711 4.29289 10.125 4.5 10.125H9.75C9.95711 10.125 10.125 9.95711 10.125 9.75V4.5C10.125 4.29289 9.95711 4.125 9.75 4.125ZM4.5 3C3.67157 3 3 3.67157 3 4.5V9.75C3 10.5784 3.67157 11.25 4.5 11.25H9.75C10.5784 11.25 11.25 10.5784 11.25 9.75V4.5C11.25 3.67157 10.5784 3 9.75 3H4.5Z" fill="#A6A6A6"/>
<path fill-rule="evenodd" clip-rule="evenodd" d="M19.5 4.125H14.25C14.0429 4.125 13.875 4.29289 13.875 4.5V9.75C13.875 9.95711 14.0429 10.125 14.25 10.125H19.5C19.7071 10.125 19.875 9.95711 19.875 9.75V4.5C19.875 4.29289 19.7071 4.125 19.5 4.125ZM14.25 3C13.4216 3 12.75 3.67157 12.75 4.5V9.75C12.75 10.5784 13.4216 11.25 14.25 11.25H19.5C20.3284 11.25 21 10.5784 21 9.75V4.5C21 3.67157 20.3284 3 19.5 3H14.25Z" fill="#A6A6A6"/>
<path fill-rule="evenodd" clip-rule="evenodd" d="M9.75 13.875H4.5C4.29289 13.875 4.125 14.0429 4.125 14.25V19.5C4.125 19.7071 4.29289 19.875 4.5 19.875H9.75C9.95711 19.875 10.125 19.7071 10.125 19.5V14.25C10.125 14.0429 9.95711 13.875 9.75 13.875ZM4.5 12.75C3.67157 12.75 3 13.4216 3 14.25V19.5C3 20.3284 3.67157 21 4.5 21H9.75C10.5784 21 11.25 20.3284 11.25 19.5V14.25C11.25 13.4216 10.5784 12.75 9.75 12.75H4.5Z" fill="#A6A6A6"/>
<path fill-rule="evenodd" clip-rule="evenodd" d="M13.875 16.875C13.875 18.5319 15.2181 19.875 16.875 19.875C18.5319 19.875 19.875 18.5319 19.875 16.875C19.875 15.2181 18.5319 13.875 16.875 13.875C15.2181 13.875 13.875 15.2181 13.875 16.875ZM16.875 12.75C14.5968 12.75 12.75 14.5968 12.75 16.875C12.75 19.1532 14.5968 21 16.875 21C19.1532 21 21 19.1532 21 16.875C21 14.5968 19.1532 12.75 16.875 12.75Z" fill="#A6A6A6"/>
</svg>
