<svg width="24" height="24" viewBox="0 0 24 24" fill="none" xmlns="http://www.w3.org/2000/svg">
<path fill-rule="evenodd" clip-rule="evenodd" d="M11.6023 2.60225C11.8219 2.38258 12.1781 2.38258 12.3978 2.60225L22.1478 12.3523C22.3086 12.5131 22.3568 12.7551 22.2697 12.9653C22.1826 13.1755 21.9775 13.3125 21.75 13.3125H20.0625V21C20.0625 21.3107 19.8107 21.5625 19.5 21.5625H4.50002C4.18936 21.5625 3.93752 21.3107 3.93752 21V13.3125H2.25002C2.02251 13.3125 1.8174 13.1755 1.73033 12.9653C1.64327 12.7551 1.6914 12.5131 1.85227 12.3523L11.6023 2.60225ZM3.60801 12.1875H4.50002C4.81068 12.1875 5.06252 12.4393 5.06252 12.75V20.4375H18.9375V12.75C18.9375 12.4393 19.1894 12.1875 19.5 12.1875H20.392L12 3.79549L3.60801 12.1875Z" fill="#F19444"/>
<path fill-rule="evenodd" clip-rule="evenodd" d="M9.1875 15C9.1875 14.6893 9.43934 14.4375 9.75 14.4375H14.25C14.5607 14.4375 14.8125 14.6893 14.8125 15V21C14.8125 21.3107 14.5607 21.5625 14.25 21.5625C13.9393 21.5625 13.6875 21.3107 13.6875 21V15.5625H10.3125V21C10.3125 21.3107 10.0607 21.5625 9.75 21.5625C9.43934 21.5625 9.1875 21.3107 9.1875 21V15Z" fill="#F19444"/>
</svg>
