<svg width="24" height="24" viewBox="0 0 24 24" fill="none" xmlns="http://www.w3.org/2000/svg">
<path d="M16.9185 21C16.7433 20.9995 16.5686 20.9798 16.3975 20.9414C13.1398 20.2522 10.1386 18.6364 7.73927 16.2798C5.39116 13.9181 3.76261 10.9111 3.05068 7.62261C2.96674 7.21277 2.98734 6.78773 3.11051 6.3884C3.23368 5.98906 3.45527 5.62885 3.75397 5.34244L5.83779 3.29135C5.94422 3.18842 6.07068 3.10959 6.20892 3.06002C6.34716 3.01045 6.49407 2.99125 6.64006 3.00367C6.79143 3.01982 6.9375 3.06968 7.068 3.14976C7.19851 3.22983 7.31027 3.33817 7.39544 3.46716L10.0002 7.40418C10.0979 7.55694 10.145 7.73774 10.1347 7.91995C10.1244 8.10217 10.0572 8.27619 9.9429 8.41641L8.63531 10.0147C9.15608 11.1933 9.89359 12.2586 10.8077 13.1526C11.7159 14.0789 12.7893 14.8186 13.9699 15.3315L15.59 14.0156C15.7261 13.9056 15.8917 13.8406 16.0648 13.8292C16.2379 13.8178 16.4103 13.8605 16.559 13.9517L20.4922 16.5515C20.6272 16.6339 20.7422 16.7465 20.8286 16.8808C20.915 17.0151 20.9705 17.1677 20.9911 17.3271C21.0116 17.4865 20.9966 17.6485 20.9472 17.8011C20.8978 17.9538 20.8153 18.093 20.7058 18.2084L18.6741 20.2648C18.4433 20.4996 18.1694 20.6855 17.8681 20.8117C17.5668 20.9378 17.2441 21.0018 16.9185 21ZM6.5567 4.05851L4.47289 6.1096C4.30485 6.26972 4.18047 6.47181 4.11196 6.69599C4.04346 6.92017 4.03319 7.15873 4.08217 7.3882C4.74416 10.474 6.26586 13.2976 8.4634 15.518C10.7213 17.735 13.5456 19.2549 16.6111 19.9025C16.8432 19.9521 17.0836 19.9421 17.3109 19.8732C17.5382 19.8044 17.7453 19.679 17.9135 19.5083L19.9452 17.4518L16.1475 14.9426L14.4075 16.3597C14.3409 16.4136 14.2624 16.4501 14.1788 16.4658C14.0953 16.4816 14.0093 16.4763 13.9282 16.4503C12.4834 15.9059 11.1742 15.0418 10.094 13.9197C8.97672 12.8527 8.10947 11.5415 7.55693 10.0839C7.53356 9.99567 7.53278 9.90276 7.55468 9.81413C7.57658 9.72549 7.62041 9.6441 7.68196 9.5778L9.08854 7.85702L6.5567 4.05851Z" fill="#A6A6A6"/>
</svg>
