<svg width="24" height="24" viewBox="0 0 24 24" fill="none" xmlns="http://www.w3.org/2000/svg">
<path fill-rule="evenodd" clip-rule="evenodd" d="M20.25 10.6875C20.5607 10.6875 20.8125 10.9393 20.8125 11.25V20.25C20.8125 20.5607 20.5607 20.8125 20.25 20.8125C19.9393 20.8125 19.6875 20.5607 19.6875 20.25V11.25C19.6875 10.9393 19.9393 10.6875 20.25 10.6875Z" fill="#A6A6A6"/>
<path fill-rule="evenodd" clip-rule="evenodd" d="M3.75 10.6875C4.06066 10.6875 4.3125 10.9393 4.3125 11.25V20.25C4.3125 20.5607 4.06066 20.8125 3.75 20.8125C3.43934 20.8125 3.1875 20.5607 3.1875 20.25V11.25C3.1875 10.9393 3.43934 10.6875 3.75 10.6875Z" fill="#A6A6A6"/>
<path fill-rule="evenodd" clip-rule="evenodd" d="M3.8126 4.05645C4.28405 3.05139 5.35462 2.4375 6.49517 2.4375H17.505C18.6455 2.4375 19.7161 3.05139 20.1876 4.05645L22.0722 8.07669C22.0723 8.07678 22.0722 8.0766 22.0722 8.07669C22.9111 9.86413 21.486 11.7526 19.5261 11.8122C19.5204 11.8124 19.5147 11.8125 19.509 11.8125H19.4241C18.4293 11.8125 17.5103 11.3629 16.9495 10.6465C16.3886 11.3629 15.4693 11.8125 14.4746 11.8125C13.4822 11.8125 12.5737 11.3387 12.014 10.6295C11.4554 11.3557 10.5306 11.8125 9.52773 11.8125C8.52721 11.8125 7.61179 11.3309 7.0532 10.6121C6.49476 11.3314 5.57908 11.8125 4.57823 11.8125H4.49117C4.48557 11.8125 4.47996 11.8124 4.47435 11.8122C2.51385 11.7536 1.0891 9.86496 1.9278 8.07696C1.92783 8.07691 1.92778 8.07701 1.9278 8.07696L3.8126 4.05645ZM7.61526 9.02888C7.61526 9.8228 8.42614 10.6875 9.52773 10.6875C10.6419 10.6875 11.4376 9.89007 11.4376 9.02888C11.4376 8.71822 11.6894 8.46638 12.0001 8.46638C12.3107 8.46638 12.5626 8.71822 12.5626 9.02888C12.5626 9.82292 13.3732 10.6875 14.4746 10.6875C15.5896 10.6875 16.3871 9.88934 16.3871 9.02888C16.3871 8.71822 16.6389 8.46638 16.9496 8.46638C17.2602 8.46638 17.5121 8.71822 17.5121 9.02888C17.5121 9.88946 18.3093 10.6875 19.4241 10.6875H19.5C20.8045 10.6431 21.4831 9.46914 21.0539 8.55475L19.1691 4.53422C18.904 3.96923 18.2614 3.5625 17.505 3.5625H6.49517C5.73886 3.5625 5.09623 3.96917 4.83116 4.5341C4.83114 4.53414 4.83118 4.53406 4.83116 4.5341L2.94643 8.55448C2.51689 9.47007 3.19601 10.6438 4.50005 10.6875H4.57823C5.68004 10.6875 6.49026 9.82472 6.49026 9.02888C6.49026 8.71822 6.7421 8.46638 7.05276 8.46638C7.36342 8.46638 7.61526 8.71822 7.61526 9.02888Z" fill="#A6A6A6"/>
<path fill-rule="evenodd" clip-rule="evenodd" d="M1.6875 21C1.6875 20.6893 1.93934 20.4375 2.25 20.4375H21.75C22.0607 20.4375 22.3125 20.6893 22.3125 21C22.3125 21.3107 22.0607 21.5625 21.75 21.5625H2.25C1.93934 21.5625 1.6875 21.3107 1.6875 21Z" fill="#A6A6A6"/>
<path fill-rule="evenodd" clip-rule="evenodd" d="M6.98438 14.0625C6.86879 14.0625 6.76021 14.1076 6.68194 14.1843C6.60407 14.2605 6.5625 14.3615 6.5625 14.4643V17.4375H10.6875V14.4643C10.6875 14.3615 10.6459 14.2605 10.5681 14.1843C10.4898 14.1076 10.3812 14.0625 10.2656 14.0625H6.98438ZM5.89469 13.3806C6.18563 13.0956 6.57782 12.9375 6.98438 12.9375H10.2656C10.6722 12.9375 11.0644 13.0956 11.3553 13.3806C11.6466 13.666 11.8125 14.0556 11.8125 14.4643V18C11.8125 18.3107 11.5607 18.5625 11.25 18.5625H6C5.68934 18.5625 5.4375 18.3107 5.4375 18V14.4643C5.4375 14.0556 5.60335 13.666 5.89469 13.3806Z" fill="#A6A6A6"/>
<path fill-rule="evenodd" clip-rule="evenodd" d="M14.4643 14.0625C14.3688 14.0625 14.27 14.1024 14.1917 14.1854C14.1124 14.2695 14.0625 14.3903 14.0625 14.5227V21C14.0625 21.3107 13.8107 21.5625 13.5 21.5625C13.1893 21.5625 12.9375 21.3107 12.9375 21V14.5227C12.9375 14.1126 13.0908 13.7132 13.3732 13.4137C13.6566 13.1131 14.0483 12.9375 14.4643 12.9375H17.0357C17.4517 12.9375 17.8434 13.1131 18.1268 13.4137C18.4092 13.7132 18.5625 14.1126 18.5625 14.5227V21C18.5625 21.3107 18.3107 21.5625 18 21.5625C17.6893 21.5625 17.4375 21.3107 17.4375 21V14.5227C17.4375 14.3903 17.3876 14.2695 17.3083 14.1854C17.23 14.1024 17.1312 14.0625 17.0357 14.0625H14.4643Z" fill="#A6A6A6"/>
</svg>
