<svg width="24" height="24" viewBox="0 0 24 24" fill="none" xmlns="http://www.w3.org/2000/svg">
<path d="M13.125 19.125C13.125 19.7463 12.6213 20.25 12 20.25C11.3787 20.25 10.875 19.7463 10.875 19.125C10.875 18.5037 11.3787 18 12 18C12.6213 18 13.125 18.5037 13.125 19.125Z" fill="#A6A6A6"/>
<path fill-rule="evenodd" clip-rule="evenodd" d="M12.0001 6.5625C10.1069 6.5625 8.92737 8.61614 9.88128 10.2514L12.0001 13.8836L14.1189 10.2514C15.0728 8.61614 13.8932 6.5625 12.0001 6.5625ZM8.90953 10.8183C7.51813 8.433 9.23866 5.4375 12.0001 5.4375C14.7615 5.4375 16.482 8.43301 15.0906 10.8183L12.5371 15.1957C12.2972 15.607 11.7029 15.607 11.463 15.1957L8.90953 10.8183Z" fill="#A6A6A6"/>
<path fill-rule="evenodd" clip-rule="evenodd" d="M12 8.4375C11.6893 8.4375 11.4375 8.68934 11.4375 9C11.4375 9.31066 11.6893 9.5625 12 9.5625C12.3107 9.5625 12.5625 9.31066 12.5625 9C12.5625 8.68934 12.3107 8.4375 12 8.4375ZM10.3125 9C10.3125 8.06802 11.068 7.3125 12 7.3125C12.932 7.3125 13.6875 8.06802 13.6875 9C13.6875 9.93198 12.932 10.6875 12 10.6875C11.068 10.6875 10.3125 9.93198 10.3125 9Z" fill="#A6A6A6"/>
<path fill-rule="evenodd" clip-rule="evenodd" d="M5.0625 3C5.0625 1.86091 5.98591 0.9375 7.125 0.9375H16.875C18.0141 0.9375 18.9375 1.86091 18.9375 3V21C18.9375 22.1391 18.0141 23.0625 16.875 23.0625H7.125C5.98591 23.0625 5.0625 22.1391 5.0625 21V3ZM7.125 2.0625C6.60723 2.0625 6.1875 2.48223 6.1875 3V21C6.1875 21.5178 6.60723 21.9375 7.125 21.9375H16.875C17.3928 21.9375 17.8125 21.5178 17.8125 21V3C17.8125 2.48223 17.3928 2.0625 16.875 2.0625H7.125Z" fill="#A6A6A6"/>
</svg>
