<svg width="32" height="32" viewBox="0 0 32 32" fill="none" xmlns="http://www.w3.org/2000/svg">
<path fill-rule="evenodd" clip-rule="evenodd" d="M4.61367 8.79332C4.64084 5.74464 7.09764 3.25 10.0909 3.25C12.5692 3.25 14.639 4.81067 15.3861 6.88495C15.5889 6.86178 15.7938 6.85 16 6.85C16.2062 6.85 16.4111 6.86178 16.6139 6.88495C17.361 4.81067 19.4308 3.25 21.9091 3.25C24.9024 3.25 27.3592 5.74464 27.3863 8.79332L27.3865 8.80669L27.3863 8.80668C27.3691 10.7419 26.3729 12.4538 24.8819 13.4462C27.7301 14.6379 29.75 17.486 29.75 20.8V23.2C29.75 23.6142 29.4142 23.95 29 23.95H23.8283C23.8367 24.0995 23.8409 24.2495 23.8409 24.4V28C23.8409 28.4142 23.5051 28.75 23.0909 28.75H8.90909C8.49488 28.75 8.15909 28.4142 8.15909 28V24.4C8.15909 24.2495 8.1633 24.0995 8.17165 23.95H3C2.58579 23.95 2.25 23.6142 2.25 23.2V20.8C2.25 17.486 4.26994 14.6379 7.11809 13.4462C5.62712 12.4538 4.63091 10.7419 4.61367 8.80668L4.61355 8.79331L4.61367 8.79332ZM10.0909 12.85C7.95248 12.85 6.1373 11.0522 6.11367 8.8C6.1373 6.5478 7.95248 4.75 10.0909 4.75C11.883 4.75 13.3525 5.84623 13.9252 7.26361C13.2565 7.54092 12.6426 7.95201 12.1229 8.47962C11.0971 9.5213 10.5227 10.9317 10.5227 12.4C10.5227 12.5507 10.5288 12.7008 10.5408 12.85H10.0909ZM10.8719 14.35H10.0909C6.62796 14.35 3.75 17.2287 3.75 20.8V22.45H8.3986C8.74184 21.0746 9.4452 19.8045 10.4516 18.7826C11.1902 18.0326 12.0618 17.4472 13.0105 17.0505C12.6926 16.8407 12.3949 16.5965 12.1229 16.3204C11.5666 15.7555 11.1431 15.0822 10.8719 14.35ZM16 17.95C14.322 17.95 12.7104 18.6267 11.5203 19.8351C10.3299 21.0439 9.65909 22.6857 9.65909 24.4V27.25H22.3409V24.4C22.3409 24.0367 22.3108 23.6766 22.2519 23.3232C22.0332 22.0089 21.4177 20.7875 20.4797 19.8351C19.2896 18.6267 17.678 17.95 16 17.95ZM23.6014 22.45H28.25V20.8C28.25 17.2287 25.372 14.35 21.9091 14.35H21.1281C20.8569 15.0822 20.4334 15.7555 19.877 16.3204C19.6051 16.5965 19.3074 16.8407 18.9895 17.0505C19.9382 17.4472 20.8098 18.0326 21.5484 18.7826C22.5549 19.8046 23.2582 21.0748 23.6014 22.45ZM21.4592 12.85H21.9091C24.0475 12.85 25.8627 11.0522 25.8863 8.8C25.8627 6.5478 24.0475 4.75 21.9091 4.75C20.117 4.75 18.6475 5.84623 18.0748 7.26361C18.7435 7.54092 19.3574 7.95201 19.877 8.47962C20.9029 9.5213 21.4773 10.9317 21.4773 12.4C21.4773 12.5507 21.4712 12.7008 21.4592 12.85ZM16 8.35C14.9489 8.35 13.9385 8.77387 13.1917 9.53215C12.4445 10.2908 12.0227 11.3222 12.0227 12.4C12.0227 13.4778 12.4445 14.5092 13.1917 15.2678C13.9385 16.0261 14.9489 16.45 16 16.45C17.0511 16.45 18.0615 16.0261 18.8083 15.2678C19.5555 14.5092 19.9773 13.4778 19.9773 12.4C19.9773 11.3222 19.5555 10.2908 18.8083 9.53215C18.0615 8.77387 17.0511 8.35 16 8.35Z" fill="#333333"/>
</svg>
