<svg width="24" height="16" viewBox="0 0 24 16" fill="none" xmlns="http://www.w3.org/2000/svg">
<mask id="path-1-inside-1" fill="white">
<path d="M22.2365 3.21922C21.6519 2.74879 20.8274 2.33056 19.7858 1.97609C17.6995 1.26603 14.9345 0.875 12 0.875C9.06551 0.875 6.30047 1.26603 4.21421 1.97605C3.17266 2.33051 2.34812 2.74879 1.76347 3.21918C1.09102 3.76032 0.75 4.35736 0.75 4.99369V10.7911C0.75 11.5108 1.20461 12.5628 3.37028 13.4872C4.87827 14.1308 6.97428 14.5937 9.28431 14.7943C9.53823 14.9765 9.84927 15.0839 10.1849 15.0839H13.815C14.1507 15.0839 14.4618 14.9765 14.7157 14.7943C15.5956 14.718 16.4462 14.6042 17.2458 14.4558C17.607 14.3888 17.9247 14.2128 18.1675 13.9656C21.4935 13.3437 23.25 12.2474 23.25 10.7911V4.99369C23.25 4.35736 22.909 3.76032 22.2365 3.21922ZM8.66873 13.85C6.72691 13.632 4.9905 13.2232 3.71534 12.6789C2.38938 12.1129 1.62891 11.4249 1.62891 10.7911V6.65961C3.0087 7.86297 5.82951 8.63474 8.76092 8.94622C8.68094 9.1329 8.63665 9.3383 8.63665 9.5539V13.5356C8.63665 13.6433 8.64772 13.7484 8.66873 13.85ZM14.4844 13.5356C14.4844 13.5357 14.4844 13.5357 14.4844 13.5358C14.4844 13.5417 14.4844 13.5476 14.4842 13.5534C14.4842 13.5538 14.4842 13.5542 14.4842 13.5546C14.4814 13.6529 14.4569 13.7485 14.4137 13.8349C14.4126 13.8371 14.4115 13.8393 14.4104 13.8415C14.4096 13.843 14.4088 13.8445 14.408 13.846C14.4077 13.8466 14.4074 13.8472 14.4071 13.8478C14.2947 14.06 14.0715 14.205 13.8151 14.205H10.1849V14.205C9.81583 14.205 9.51555 13.9048 9.51555 13.5357V9.55394C9.51555 9.18489 9.81583 8.88457 10.1849 8.88457H13.815C14.0575 8.88457 14.2703 9.01416 14.3878 9.2077C14.3892 9.21003 14.3906 9.21236 14.3919 9.21473L14.3923 9.21539C14.4478 9.30991 14.4801 9.41797 14.484 9.53056C14.484 9.53118 14.4841 9.53179 14.4841 9.53241C14.4841 9.53527 14.4842 9.53812 14.4843 9.54098C14.4843 9.54177 14.4843 9.5426 14.4843 9.5434C14.4844 9.54687 14.4844 9.55038 14.4844 9.55385V10.1203H11.7803C11.5376 10.1203 11.3408 10.317 11.3408 10.5597V12.8166C11.3408 13.0593 11.5376 13.2561 11.7803 13.2561H14.4844V13.5356V13.5356ZM14.4844 12.3772H12.2197V10.9992H14.4844V12.3772V12.3772ZM17.7862 12.7497C17.7862 13.1623 17.4915 13.5163 17.0855 13.5916C16.5247 13.6957 15.9373 13.7822 15.3313 13.85C15.3522 13.7488 15.3633 13.6439 15.3634 13.5366C15.3634 13.5363 15.3634 13.536 15.3634 13.5356V9.5539C15.3634 9.33848 15.3191 9.13321 15.2393 8.94666C15.7705 8.89081 16.2896 8.82111 16.7902 8.73827C17.0388 8.69718 17.292 8.76697 17.4842 8.93001C17.6761 9.09282 17.7862 9.33061 17.7862 9.58242V12.7497ZM17.6375 7.99836C17.3303 7.86117 16.9866 7.81507 16.6468 7.87119V7.87123C15.9438 7.98751 15.2023 8.07712 14.4408 8.13785C14.2494 8.05295 14.0377 8.0057 13.8151 8.0057H10.185C9.96234 8.0057 9.75057 8.05294 9.55906 8.13793C7.29007 7.95684 5.23906 7.52046 3.77282 6.90584C3.70528 6.87749 3.63914 6.84889 3.57445 6.81997C3.95713 6.64507 4.48052 6.44428 5.17591 6.2493C7.06701 5.71905 9.4905 5.42708 12 5.42708C14.5095 5.42708 16.933 5.7191 18.824 6.2493C19.5588 6.45531 20.1363 6.70044 20.5576 6.91419C19.8215 7.30965 18.8531 7.68675 17.6375 7.99836ZM22.3711 10.7911C22.3711 11.351 21.7695 11.7977 21.2647 12.074C20.6277 12.4227 19.7339 12.7282 18.6512 12.9696C18.6604 12.8975 18.6651 12.8241 18.6651 12.7498V9.58246C18.6651 9.26601 18.5793 8.96046 18.4213 8.69525C19.7358 8.31358 20.8258 7.83238 21.6354 7.29076C21.6593 7.27766 21.6822 7.26219 21.7036 7.24453C21.9549 7.07195 22.178 6.8934 22.3711 6.71015V10.7911ZM21.4066 6.377C20.8962 6.074 20.1248 5.70117 19.0614 5.40295C17.0952 4.8517 14.5875 4.54813 12 4.54813C9.41254 4.54813 6.9048 4.8517 4.9386 5.403C3.81848 5.71703 3.08868 6.05181 2.63354 6.31398C1.9926 5.89184 1.63805 5.43973 1.62908 5.01039C1.62908 5.0096 1.62904 5.00885 1.62904 5.00806C1.62895 5.00327 1.62891 4.99848 1.62891 4.99369C1.62891 3.46132 5.88817 1.75391 12 1.75391C18.1118 1.75391 22.3711 3.46132 22.3711 4.99369C22.3711 5.3928 22.0588 5.88292 21.4066 6.377Z"/>
</mask>
<path d="M22.2365 3.21922C21.6519 2.74879 20.8274 2.33056 19.7858 1.97609C17.6995 1.26603 14.9345 0.875 12 0.875C9.06551 0.875 6.30047 1.26603 4.21421 1.97605C3.17266 2.33051 2.34812 2.74879 1.76347 3.21918C1.09102 3.76032 0.75 4.35736 0.75 4.99369V10.7911C0.75 11.5108 1.20461 12.5628 3.37028 13.4872C4.87827 14.1308 6.97428 14.5937 9.28431 14.7943C9.53823 14.9765 9.84927 15.0839 10.1849 15.0839H13.815C14.1507 15.0839 14.4618 14.9765 14.7157 14.7943C15.5956 14.718 16.4462 14.6042 17.2458 14.4558C17.607 14.3888 17.9247 14.2128 18.1675 13.9656C21.4935 13.3437 23.25 12.2474 23.25 10.7911V4.99369C23.25 4.35736 22.909 3.76032 22.2365 3.21922ZM8.66873 13.85C6.72691 13.632 4.9905 13.2232 3.71534 12.6789C2.38938 12.1129 1.62891 11.4249 1.62891 10.7911V6.65961C3.0087 7.86297 5.82951 8.63474 8.76092 8.94622C8.68094 9.1329 8.63665 9.3383 8.63665 9.5539V13.5356C8.63665 13.6433 8.64772 13.7484 8.66873 13.85ZM14.4844 13.5356C14.4844 13.5357 14.4844 13.5357 14.4844 13.5358C14.4844 13.5417 14.4844 13.5476 14.4842 13.5534C14.4842 13.5538 14.4842 13.5542 14.4842 13.5546C14.4814 13.6529 14.4569 13.7485 14.4137 13.8349C14.4126 13.8371 14.4115 13.8393 14.4104 13.8415C14.4096 13.843 14.4088 13.8445 14.408 13.846C14.4077 13.8466 14.4074 13.8472 14.4071 13.8478C14.2947 14.06 14.0715 14.205 13.8151 14.205H10.1849V14.205C9.81583 14.205 9.51555 13.9048 9.51555 13.5357V9.55394C9.51555 9.18489 9.81583 8.88457 10.1849 8.88457H13.815C14.0575 8.88457 14.2703 9.01416 14.3878 9.2077C14.3892 9.21003 14.3906 9.21236 14.3919 9.21473L14.3923 9.21539C14.4478 9.30991 14.4801 9.41797 14.484 9.53056C14.484 9.53118 14.4841 9.53179 14.4841 9.53241C14.4841 9.53527 14.4842 9.53812 14.4843 9.54098C14.4843 9.54177 14.4843 9.5426 14.4843 9.5434C14.4844 9.54687 14.4844 9.55038 14.4844 9.55385V10.1203H11.7803C11.5376 10.1203 11.3408 10.317 11.3408 10.5597V12.8166C11.3408 13.0593 11.5376 13.2561 11.7803 13.2561H14.4844V13.5356V13.5356ZM14.4844 12.3772H12.2197V10.9992H14.4844V12.3772V12.3772ZM17.7862 12.7497C17.7862 13.1623 17.4915 13.5163 17.0855 13.5916C16.5247 13.6957 15.9373 13.7822 15.3313 13.85C15.3522 13.7488 15.3633 13.6439 15.3634 13.5366C15.3634 13.5363 15.3634 13.536 15.3634 13.5356V9.5539C15.3634 9.33848 15.3191 9.13321 15.2393 8.94666C15.7705 8.89081 16.2896 8.82111 16.7902 8.73827C17.0388 8.69718 17.292 8.76697 17.4842 8.93001C17.6761 9.09282 17.7862 9.33061 17.7862 9.58242V12.7497ZM17.6375 7.99836C17.3303 7.86117 16.9866 7.81507 16.6468 7.87119V7.87123C15.9438 7.98751 15.2023 8.07712 14.4408 8.13785C14.2494 8.05295 14.0377 8.0057 13.8151 8.0057H10.185C9.96234 8.0057 9.75057 8.05294 9.55906 8.13793C7.29007 7.95684 5.23906 7.52046 3.77282 6.90584C3.70528 6.87749 3.63914 6.84889 3.57445 6.81997C3.95713 6.64507 4.48052 6.44428 5.17591 6.2493C7.06701 5.71905 9.4905 5.42708 12 5.42708C14.5095 5.42708 16.933 5.7191 18.824 6.2493C19.5588 6.45531 20.1363 6.70044 20.5576 6.91419C19.8215 7.30965 18.8531 7.68675 17.6375 7.99836ZM22.3711 10.7911C22.3711 11.351 21.7695 11.7977 21.2647 12.074C20.6277 12.4227 19.7339 12.7282 18.6512 12.9696C18.6604 12.8975 18.6651 12.8241 18.6651 12.7498V9.58246C18.6651 9.26601 18.5793 8.96046 18.4213 8.69525C19.7358 8.31358 20.8258 7.83238 21.6354 7.29076C21.6593 7.27766 21.6822 7.26219 21.7036 7.24453C21.9549 7.07195 22.178 6.8934 22.3711 6.71015V10.7911ZM21.4066 6.377C20.8962 6.074 20.1248 5.70117 19.0614 5.40295C17.0952 4.8517 14.5875 4.54813 12 4.54813C9.41254 4.54813 6.9048 4.8517 4.9386 5.403C3.81848 5.71703 3.08868 6.05181 2.63354 6.31398C1.9926 5.89184 1.63805 5.43973 1.62908 5.01039C1.62908 5.0096 1.62904 5.00885 1.62904 5.00806C1.62895 5.00327 1.62891 4.99848 1.62891 4.99369C1.62891 3.46132 5.88817 1.75391 12 1.75391C18.1118 1.75391 22.3711 3.46132 22.3711 4.99369C22.3711 5.3928 22.0588 5.88292 21.4066 6.377Z" fill="#333333" stroke="#B490E2" stroke-width="2" mask="url(#path-1-inside-1)"/>
</svg>
