<svg width="32" height="32" viewBox="0 0 32 32" fill="none" xmlns="http://www.w3.org/2000/svg">
<path fill-rule="evenodd" clip-rule="evenodd" d="M15.4697 3.46967C15.7626 3.17678 16.2375 3.17678 16.5304 3.46967L29.5304 16.4697C29.7449 16.6842 29.809 17.0068 29.6929 17.287C29.5768 17.5673 29.3034 17.75 29 17.75H26.75V28C26.75 28.4142 26.4142 28.75 26 28.75H6.00002C5.58581 28.75 5.25002 28.4142 5.25002 28V17.75H3.00002C2.69668 17.75 2.4232 17.5673 2.30711 17.287C2.19103 17.0068 2.25519 16.6842 2.46969 16.4697L15.4697 3.46967ZM4.81068 16.25H6.00002C6.41424 16.25 6.75002 16.5858 6.75002 17V27.25H25.25V17C25.25 16.5858 25.5858 16.25 26 16.25H27.1894L16 5.06066L4.81068 16.25Z" fill="#333333"/>
<path fill-rule="evenodd" clip-rule="evenodd" d="M12.25 20C12.25 19.5858 12.5858 19.25 13 19.25H19C19.4142 19.25 19.75 19.5858 19.75 20V28C19.75 28.4142 19.4142 28.75 19 28.75C18.5858 28.75 18.25 28.4142 18.25 28V20.75H13.75V28C13.75 28.4142 13.4142 28.75 13 28.75C12.5858 28.75 12.25 28.4142 12.25 28V20Z" fill="#333333"/>
</svg>
