<svg width="32" height="32" viewBox="0 0 32 32" fill="none" xmlns="http://www.w3.org/2000/svg">
<path fill-rule="evenodd" clip-rule="evenodd" d="M27 14.25C27.4142 14.25 27.75 14.5858 27.75 15V27C27.75 27.4142 27.4142 27.75 27 27.75C26.5858 27.75 26.25 27.4142 26.25 27V15C26.25 14.5858 26.5858 14.25 27 14.25Z" fill="#333333"/>
<path fill-rule="evenodd" clip-rule="evenodd" d="M5 14.25C5.41421 14.25 5.75 14.5858 5.75 15V27C5.75 27.4142 5.41421 27.75 5 27.75C4.58579 27.75 4.25 27.4142 4.25 27V15C4.25 14.5858 4.58579 14.25 5 14.25Z" fill="#333333"/>
<path fill-rule="evenodd" clip-rule="evenodd" d="M5.08346 5.4086C5.71207 4.06852 7.13949 3.25 8.66023 3.25H23.34C24.8607 3.25 26.2882 4.06852 26.9168 5.4086L29.4297 10.7689C29.4297 10.769 29.4296 10.7688 29.4297 10.7689C30.5481 13.1522 28.648 15.6701 26.0348 15.7497C26.0272 15.7499 26.0196 15.75 26.012 15.75H25.8988C24.5725 15.75 23.347 15.1505 22.5994 14.1954C21.8515 15.1506 20.6258 15.75 19.2995 15.75C17.9762 15.75 16.7649 15.1183 16.0187 14.1727C15.2738 15.1409 14.0409 15.75 12.7036 15.75C11.3696 15.75 10.1491 15.1079 9.40426 14.1494C8.65968 15.1085 7.43877 15.75 6.1043 15.75H5.98823C5.98075 15.75 5.97328 15.7499 5.96581 15.7497C3.3518 15.6715 1.45214 13.1533 2.57041 10.7693C2.57044 10.7692 2.57037 10.7693 2.57041 10.7693L5.08346 5.4086ZM10.1537 12.0385C10.1537 13.0971 11.2349 14.25 12.7036 14.25C14.1892 14.25 15.2501 13.1868 15.2501 12.0385C15.2501 11.6243 15.5859 11.2885 16.0001 11.2885C16.4143 11.2885 16.7501 11.6243 16.7501 12.0385C16.7501 13.0972 17.8309 14.25 19.2995 14.25C20.7861 14.25 21.8494 13.1858 21.8494 12.0385C21.8494 11.6243 22.1852 11.2885 22.5994 11.2885C23.0137 11.2885 23.3494 11.6243 23.3494 12.0385C23.3494 13.1859 24.4124 14.25 25.8988 14.25H25.9999C27.7393 14.1907 28.6441 12.6255 28.0718 11.4063L25.5587 6.04562C25.2054 5.2923 24.3485 4.75 23.34 4.75H8.66023C7.65181 4.75 6.79497 5.29223 6.44155 6.04546C6.44153 6.04552 6.44158 6.04541 6.44155 6.04546L3.92857 11.406C3.35585 12.6268 4.26135 14.1918 6.00007 14.25H6.1043C7.57338 14.25 8.65368 13.0996 8.65368 12.0385C8.65368 11.6243 8.98947 11.2885 9.40368 11.2885C9.81789 11.2885 10.1537 11.6243 10.1537 12.0385Z" fill="#333333"/>
<path fill-rule="evenodd" clip-rule="evenodd" d="M2.25 28C2.25 27.5858 2.58579 27.25 3 27.25H29C29.4142 27.25 29.75 27.5858 29.75 28C29.75 28.4142 29.4142 28.75 29 28.75H3C2.58579 28.75 2.25 28.4142 2.25 28Z" fill="#333333"/>
<path fill-rule="evenodd" clip-rule="evenodd" d="M9.3125 18.75C9.15838 18.75 9.01361 18.8101 8.90926 18.9123C8.80542 19.0141 8.75 19.1487 8.75 19.2857V23.25H14.25V19.2857C14.25 19.1487 14.1946 19.0141 14.0907 18.9123C13.9864 18.8101 13.8416 18.75 13.6875 18.75H9.3125ZM7.85959 17.8408C8.24751 17.4608 8.77042 17.25 9.3125 17.25H13.6875C14.2296 17.25 14.7525 17.4608 15.1404 17.8408C15.5289 18.2213 15.75 18.7408 15.75 19.2857V24C15.75 24.4142 15.4142 24.75 15 24.75H8C7.58579 24.75 7.25 24.4142 7.25 24V19.2857C7.25 18.7408 7.47114 18.2213 7.85959 17.8408Z" fill="#333333"/>
<path fill-rule="evenodd" clip-rule="evenodd" d="M19.2857 18.75C19.1584 18.75 19.0266 18.8033 18.9223 18.9139C18.8165 19.0261 18.75 19.1871 18.75 19.3636V28C18.75 28.4142 18.4142 28.75 18 28.75C17.5858 28.75 17.25 28.4142 17.25 28V19.3636C17.25 18.8168 17.4544 18.2842 17.8309 17.8849C18.2088 17.4841 18.7311 17.25 19.2857 17.25H22.7143C23.2689 17.25 23.7912 17.4841 24.1691 17.8849C24.5456 18.2842 24.75 18.8168 24.75 19.3636V28C24.75 28.4142 24.4142 28.75 24 28.75C23.5858 28.75 23.25 28.4142 23.25 28V19.3636C23.25 19.1871 23.1835 19.0261 23.0777 18.9139C22.9734 18.8033 22.8416 18.75 22.7143 18.75H19.2857Z" fill="#333333"/>
</svg>
