<svg width="32" height="32" viewBox="0 0 32 32" fill="none" xmlns="http://www.w3.org/2000/svg">
<path fill-rule="evenodd" clip-rule="evenodd" d="M3.25 16C3.25 8.96079 8.96079 3.25 16 3.25C23.0392 3.25 28.75 8.96079 28.75 16C28.75 23.0392 23.0392 28.75 16 28.75C8.96079 28.75 3.25 23.0392 3.25 16ZM16 4.75C9.78921 4.75 4.75 9.78921 4.75 16C4.75 22.2108 9.78921 27.25 16 27.25C22.2108 27.25 27.25 22.2108 27.25 16C27.25 9.78921 22.2108 4.75 16 4.75Z" fill="#333333"/>
<path fill-rule="evenodd" clip-rule="evenodd" d="M16 7.25C16.4142 7.25 16.75 7.58579 16.75 8V16.25H22C22.4142 16.25 22.75 16.5858 22.75 17C22.75 17.4142 22.4142 17.75 22 17.75H16C15.5858 17.75 15.25 17.4142 15.25 17V8C15.25 7.58579 15.5858 7.25 16 7.25Z" fill="#333333"/>
</svg>
